<svg width="266" height="176" viewBox="0 0 266 176" fill="none" xmlns="http://www.w3.org/2000/svg">
<path d="M116.48 139.96C104.347 139.96 94.7333 136.6 87.64 129.88C80.5467 123.067 77 113.36 77 100.76V77.24C77 64.64 80.5467 54.98 87.64 48.26C94.7333 41.4467 104.347 38.04 116.48 38.04C128.52 38.04 137.807 41.3533 144.34 47.98C150.967 54.5133 154.28 63.52 154.28 75V75.84H136.08V74.44C136.08 68.6533 134.447 63.8933 131.18 60.16C128.007 56.4267 123.107 54.56 116.48 54.56C109.947 54.56 104.813 56.5667 101.08 60.58C97.3467 64.5933 95.48 70.0533 95.48 76.96V101.04C95.48 107.853 97.3467 113.313 101.08 117.42C104.813 121.433 109.947 123.44 116.48 123.44C123.107 123.44 128.007 121.573 131.18 117.84C134.447 114.013 136.08 109.253 136.08 103.56V101.04H154.28V103C154.28 114.48 150.967 123.533 144.34 130.16C137.807 136.693 128.52 139.96 116.48 139.96Z" fill="#9EEA6C"/>
<path d="M46.8 108.764L9 95.9837V81.9437L46.8 69.1637V79.9637L19.98 88.1537V89.7737L46.8 97.9637V108.764Z" fill="#244C4E"/>
<path d="M173.56 138.464L200.02 57.4637H211.36L184.9 138.464H173.56ZM218.893 108.764V97.9637L245.713 89.7737V88.1537L218.893 79.9637V69.1637L256.693 81.9437V95.9837L218.893 108.764Z" fill="#244C4E"/>
</svg>
