<svg width="674" height="838" viewBox="0 0 674 838" fill="none" xmlns="http://www.w3.org/2000/svg">
<path d="M461.286 741.577C454.098 731.509 444.365 724.144 432.13 721.387C421.462 718.983 410.491 719.393 399.646 719.477L262.517 720.534C250.773 720.625 239.512 730.799 240.058 742.993C240.599 755.084 249.928 765.549 262.517 765.452C302.686 765.142 342.856 764.833 383.025 764.523C392.494 764.45 401.97 764.278 411.441 764.311C413.568 764.316 415.686 764.428 417.811 764.454C418.325 764.459 418.697 764.454 418.959 764.444C419.025 764.464 419.08 764.482 419.166 764.506C420.275 764.809 421.412 765.019 422.526 765.309C422.136 765.32 423.249 766.015 423.809 766.251C423.886 766.402 424.049 766.67 424.323 767.086C424.705 767.802 425.835 769.976 425.881 769.907C427.579 774.201 428.98 778.606 430.074 783.092C432.685 792.984 433.257 795.051 433.633 804.333C434.108 816.056 443.623 827.349 456.092 826.791C467.854 826.264 479.061 816.905 478.551 804.333C477.694 783.144 473.974 759.344 461.286 741.577Z" fill="#E6E6E6"/>
<path d="M270.577 792.258C268.001 776.649 265.476 761.03 262.85 745.431C260.186 729.606 254.745 715.114 242.429 704.727C239.139 701.953 235.726 699.362 232.3 696.779C231.096 695.871 229.893 694.962 228.702 694.034C228.631 693.979 228.586 693.944 228.524 693.896C228.394 693.783 228.236 693.649 228.024 693.471C222.893 689.127 217.932 684.59 213.209 679.767C209.013 675.483 205.001 671.016 201.172 666.369C200.215 665.206 199.271 664.036 198.338 662.854C198.178 662.65 197.315 661.534 196.746 660.806C196.217 660.077 195.25 658.761 195.087 658.53C193.998 656.991 192.928 655.437 191.878 653.867C184.725 643.15 178.531 631.824 173.368 620.018C172.855 618.847 172.356 617.669 171.869 616.484C171.737 616.122 171.568 615.659 171.344 615.04C170.302 612.179 169.265 609.321 168.313 606.426C166.292 600.277 164.554 594.037 163.1 587.706C162.381 584.58 161.734 581.439 161.159 578.28C160.861 576.658 160.584 575.029 160.325 573.4C160.283 573.129 160.03 571.369 159.883 570.375C159.772 569.377 159.568 567.608 159.54 567.334C159.376 565.691 159.23 564.046 159.102 562.399C158.816 558.693 158.621 554.981 158.52 551.262C158.347 544.655 158.466 538.047 158.875 531.441C159.108 527.728 159.44 524.025 159.849 520.329C159.873 520.102 159.892 519.922 159.911 519.759C159.934 519.594 159.964 519.407 159.998 519.173C160.299 517.13 160.618 515.091 160.973 513.058C162.321 505.338 164.073 497.695 166.223 490.16C167.241 486.596 168.345 483.06 169.539 479.554C170.07 477.997 170.619 476.447 171.185 474.902C171.149 475.001 172.844 470.67 172.868 470.524C179.599 454.621 190.606 440.124 190.622 422.06C190.632 409.828 180.285 398.113 168.163 398.677C162.119 398.905 156.4 401.471 152.21 405.832C148.02 410.193 145.688 416.012 145.704 422.06C145.704 422.334 145.703 422.568 145.703 422.796C145.589 423.176 145.495 423.495 145.409 423.775C144.097 426.628 142.488 429.338 141.048 432.119C137.103 439.732 133.736 447.594 130.537 455.573C125.3 468.564 121.292 482.018 118.564 495.758C112.636 525.861 112.176 556.787 117.206 587.053C125.914 640.131 154.63 690.939 194.554 725.09C198.018 728.055 201.566 730.918 205.15 733.724C206.632 734.887 208.127 736.025 209.629 737.158C210.339 737.694 213.282 740.013 211.987 738.889C214.769 741.264 215.942 742.46 216.656 744.209C216.76 744.611 216.9 745.16 217.091 745.908C217.595 747.881 218.074 749.849 218.471 751.849C221.947 769.327 224.362 787.098 227.264 804.689C229.26 816.776 244.139 824.643 254.892 821.02C267.408 816.803 272.715 805.208 270.577 792.258Z" fill="#E6E6E6"/>
<path d="M463.559 837.59C454.126 837.614 445.069 833.897 438.375 827.252C431.679 820.607 427.895 811.578 427.849 802.147V776.527C401.026 779.53 309.176 778.835 282.848 774.604V801.122C282.777 810.547 278.984 819.561 272.295 826.201C265.605 832.84 256.563 836.566 247.138 836.566C237.713 836.566 228.67 832.84 221.982 826.201C215.292 819.561 211.499 810.547 211.427 801.122V749.057C175.768 729.247 146.041 700.28 125.314 665.145C104.587 630.01 93.6106 589.982 93.5184 549.189C93.5184 479.243 125.218 413.993 180.489 370.171C216.426 341.583 260.089 324.389 305.87 320.8C312.084 320.313 318.336 320.066 324.452 320.066C346.003 320.066 443.23 323.394 467.625 330.412L523.25 275.218C524.069 274.395 525.113 273.835 526.25 273.608C527.387 273.382 528.566 273.498 529.637 273.945C530.716 274.374 531.64 275.12 532.287 276.082C532.934 277.047 533.275 278.184 533.266 279.345V288.12L544.096 277.392C544.912 276.57 545.956 276.008 547.093 275.781C548.229 275.555 549.408 275.671 550.478 276.118C551.557 276.547 552.482 277.292 553.131 278.257C553.779 279.22 554.12 280.358 554.11 281.519V379.587C582.021 404.751 603.295 436.41 616.045 471.762C628.796 507.112 632.628 545.062 627.204 582.249C621.781 619.435 607.268 654.71 584.951 684.945C562.635 715.182 533.204 739.446 499.267 755.587V802.147C499.222 811.578 495.436 820.607 488.741 827.252C482.046 833.897 472.99 837.614 463.559 837.59ZM430.656 773.344V802.147C430.726 810.826 434.224 819.126 440.387 825.239C446.55 831.352 454.878 834.781 463.557 834.781C472.238 834.781 480.567 831.352 486.729 825.239C492.891 819.126 496.389 810.826 496.46 802.147V753.814L497.261 753.434C535.34 735.364 567.666 707.095 590.65 671.764C619.938 626.681 632.117 572.601 624.985 519.314C617.854 466.028 591.882 417.055 551.769 381.258L551.303 380.839V281.519C551.313 280.915 551.137 280.324 550.8 279.823C550.464 279.322 549.982 278.936 549.419 278.719C548.86 278.479 548.242 278.414 547.645 278.533C547.048 278.651 546.502 278.947 546.077 279.383L530.458 294.851V279.345C530.468 278.741 530.293 278.149 529.956 277.648C529.619 277.146 529.137 276.762 528.574 276.543C528.013 276.304 527.394 276.24 526.796 276.359C526.199 276.478 525.652 276.776 525.227 277.211L468.41 333.589L467.603 333.336C444.925 326.238 346.166 322.873 324.452 322.873C318.408 322.873 312.23 323.117 306.09 323.599C260.865 327.144 217.733 344.129 182.233 372.371C127.638 415.658 96.3255 480.105 96.3255 549.189C96.4189 589.621 107.336 629.29 127.944 664.075C148.551 698.861 178.097 727.495 213.512 747.003L214.235 747.403V801.122C214.308 809.801 217.806 818.1 223.969 824.212C230.131 830.322 238.459 833.751 247.138 833.751C255.817 833.751 264.144 830.322 270.308 824.212C276.47 818.1 279.968 809.801 280.041 801.122V771.244L281.704 771.557C305.363 776.008 404.991 776.71 429.069 773.551L430.656 773.344Z" fill="#4C5267"/>
<path d="M273.261 167.204L117.816 213.919C112.872 215.41 108.722 218.804 106.278 223.353C103.835 227.902 103.297 233.236 104.783 238.181C106.269 243.128 109.658 247.282 114.205 249.73C118.751 252.179 124.084 252.722 129.032 251.243L265.062 210.353L267.913 209.497C268.488 194.812 272.474 180.463 279.549 167.583C278.661 167.183 277.712 166.936 276.742 166.853C275.57 166.74 274.387 166.859 273.261 167.204Z" fill="#9EEA6C"/>
<path d="M126.344 261.202C124.28 261.196 122.271 260.544 120.599 259.334C118.927 258.125 117.677 256.421 117.026 254.463L107.306 225.131C106.9 223.906 106.739 222.613 106.833 221.326C106.927 220.039 107.273 218.783 107.852 217.63C108.431 216.476 109.232 215.449 110.209 214.605C111.185 213.762 112.318 213.119 113.543 212.713L240.058 170.785C241.284 170.379 242.576 170.218 243.864 170.312C245.151 170.405 246.406 170.751 247.56 171.33C248.712 171.909 249.739 172.709 250.584 173.686C251.428 174.662 252.071 175.795 252.477 177.02L262.197 206.352C263.006 208.763 262.844 211.396 261.745 213.691C260.646 215.986 258.698 217.764 256.312 218.646C256.195 218.69 256.076 218.732 255.958 218.77L129.444 260.697C128.445 261.031 127.398 261.201 126.344 261.202Z" fill="#244C4E"/>
<path d="M363.279 115.113C337.743 115.123 313.216 125.068 294.885 142.843C276.553 160.619 265.858 184.83 265.062 210.353C265.034 211.35 265.021 212.361 265.021 213.371C265.021 232.804 270.784 251.801 281.581 267.959C292.376 284.118 307.723 296.712 325.677 304.149C343.632 311.586 363.387 313.533 382.448 309.741C401.509 305.95 419.015 296.592 432.758 282.85C446.5 269.107 455.858 251.601 459.649 232.54C463.439 213.479 461.494 193.724 454.057 175.769C446.62 157.815 434.026 142.468 417.867 131.672C401.709 120.875 382.712 115.113 363.279 115.113ZM363.279 308.822C337.972 308.795 313.708 298.729 295.814 280.835C277.92 262.941 267.854 238.678 267.829 213.371C267.829 212.066 267.857 210.774 267.913 209.497C268.672 190.799 274.912 172.737 285.855 157.558C296.798 142.379 311.961 130.75 329.459 124.119C346.959 117.488 366.019 116.147 384.274 120.263C402.529 124.379 419.171 133.769 432.132 147.268C445.092 160.765 453.799 177.775 457.169 196.183C460.539 214.59 458.424 233.582 451.087 250.795C443.751 268.01 431.515 282.688 415.904 293.005C400.292 303.322 381.992 308.822 363.279 308.822Z" fill="#4C5267"/>
<path d="M387.941 218.874C385.933 216.234 383.293 214.143 380.264 212.796C376.527 211.221 372.667 209.953 368.724 209.006V186.463C374.785 187.377 380.47 189.968 385.133 193.944L389.711 184.189C387.079 181.843 384.057 179.976 380.782 178.672C377.153 177.203 373.344 176.224 369.456 175.767V164.341H358.858V175.879C354.765 176.338 350.817 177.663 347.277 179.767C344.078 181.659 341.386 184.298 339.429 187.459C337.562 190.543 336.595 194.088 336.637 197.692C336.455 201.599 337.586 205.453 339.852 208.641C341.936 211.401 344.689 213.583 347.851 214.986C351.648 216.607 355.573 217.907 359.588 218.874V240.477C352.436 239.936 345.621 237.217 340.062 232.686L335.486 242.456C338.594 245.025 342.129 247.03 345.93 248.379C350.093 249.869 354.445 250.775 358.858 251.074V262.402H369.456V250.864C375.341 250.22 380.862 247.689 385.191 243.649C387.097 241.82 388.602 239.616 389.612 237.175C390.622 234.736 391.114 232.112 391.058 229.472C391.234 225.689 390.136 221.958 387.941 218.874ZM359.588 206.62C357.006 205.836 354.606 204.548 352.526 202.83C351.703 202.096 351.052 201.19 350.619 200.175C350.187 199.16 349.985 198.064 350.029 196.962C349.951 194.462 350.871 192.034 352.582 190.211C354.481 188.297 356.93 187.026 359.588 186.575V206.62ZM375.379 236.49C373.588 238.326 371.256 239.542 368.724 239.957V221.372C371.144 222.021 373.408 223.152 375.379 224.699C376.126 225.336 376.72 226.135 377.115 227.035C377.511 227.933 377.699 228.91 377.667 229.893C377.764 232.302 376.947 234.658 375.379 236.49Z" fill="#9EEA6C"/>
<path d="M131.388 383.488C129.218 383.511 127.101 382.819 125.365 381.517C123.629 380.215 122.372 378.376 121.787 376.286L116.243 356.324C115.549 353.814 115.879 351.133 117.16 348.866C118.44 346.6 120.568 344.934 123.075 344.234L289.463 298.021C291.974 297.332 294.655 297.665 296.921 298.949C299.186 300.232 300.853 302.36 301.553 304.867L306.249 321.78L305.41 321.856C262.636 325.724 221.865 341.761 187.921 368.074L187.68 368.195L133.877 383.132C133.066 383.357 132.229 383.477 131.388 383.488Z" fill="#204749"/>
<path d="M103.204 479.019C83.6193 476.126 64.8887 469.043 48.2889 458.255C40.065 452.914 32.4518 446.688 25.5858 439.687C18.809 432.774 12.3259 424.918 8.96924 415.713C5.73971 407.196 5.90616 397.764 9.43419 389.367C12.9141 381.02 19.5615 374.395 27.919 370.942C36.3265 367.59 46.4844 367.231 54.6668 370.903C58.566 372.612 61.9398 375.329 64.4425 378.772C65.6059 380.359 66.4672 382.148 66.9836 384.047C67.4628 385.768 67.5064 387.581 67.1105 389.323C66.6307 391.064 65.7845 392.679 64.6287 394.065C63.4731 395.45 62.0345 396.573 60.4094 397.357C56.8331 399.193 52.958 400.373 48.9664 400.847C44.9518 401.395 39.1846 401.893 35.9571 398.67C35.2927 398.032 34.7701 397.262 34.4234 396.409C34.1809 395.756 34.0978 395.054 34.1814 394.362C34.1344 394.667 34.3761 393.699 34.3624 393.738C34.3114 393.881 34.0903 394.229 34.4045 393.694C34.5026 393.517 34.6119 393.348 34.7317 393.185C34.625 393.322 34.3907 393.553 34.8091 393.157C35.1549 392.779 35.5993 392.504 36.0925 392.365C36.2868 392.309 36.4839 392.264 36.6787 392.211C37.1739 392.074 36.1852 392.218 36.6918 392.201C36.8872 392.195 37.0851 392.199 37.2799 392.191C37.7768 392.169 36.7896 392.056 37.2659 392.176C37.4507 392.222 37.6339 392.267 37.8161 392.324C38.2121 392.449 37.5357 392.034 37.804 392.345C38.1185 392.709 37.4739 391.99 37.8313 392.344C38.0091 392.518 38.1767 392.703 38.3334 392.897C38.9531 393.509 39.789 393.852 40.66 393.852C41.5308 393.852 42.3667 393.509 42.9866 392.897C43.5853 392.27 43.9193 391.437 43.9193 390.57C43.9193 389.704 43.5853 388.87 42.9866 388.244C39.7421 384.221 33.3333 385.215 30.0512 388.614C25.8654 392.95 27.523 399.82 31.5946 403.603C36.2038 407.886 42.732 408.183 48.6611 407.464C53.6719 406.984 58.5549 405.605 63.0757 403.391C67.5678 401.184 71.0809 397.389 72.9352 392.74C73.7724 390.259 74.073 387.629 73.8174 385.022C73.5618 382.417 72.7557 379.895 71.4523 377.624C66.2176 367.782 55.378 362.737 44.664 361.863C39.1478 361.431 33.6007 362.097 28.3436 363.823C23.0865 365.549 18.224 368.3 14.0373 371.918C5.96746 379.182 0.998244 389.27 0.157264 400.097C-0.777955 411.32 3.57677 422.22 9.92583 431.278C16.5726 440.482 24.5043 448.684 33.4789 455.636C51.0241 469.644 71.6046 479.35 93.5734 483.978C96.1865 484.518 98.8137 484.98 101.455 485.365C102.295 485.568 103.182 485.443 103.933 485.017C104.685 484.59 105.246 483.892 105.502 483.066C105.728 482.225 105.613 481.329 105.183 480.571C104.753 479.813 104.042 479.256 103.204 479.019Z" fill="#4C5267"/>
<path d="M416.767 336.017C388.073 335.611 359.468 336.34 330.955 338.201C321.209 338.838 312.776 342.283 312.776 348.072C312.776 352.913 321.142 358.584 330.955 357.942C359.454 356.081 388.059 355.354 416.767 355.758C440.172 356.088 440.158 336.347 416.767 336.017Z" fill="#7C7C8A" fill-opacity="0.2"/>
<path d="M374.356 354.78C371.255 354.78 298.409 354.665 298.409 344.602C298.409 334.54 371.255 334.425 374.356 334.425C377.457 334.425 450.304 334.54 450.304 344.602C450.304 354.665 377.457 354.78 374.356 354.78ZM301.258 344.602C303.251 347.654 330.027 351.973 374.356 351.973C418.684 351.973 445.461 347.654 447.456 344.602C445.462 341.552 418.684 337.233 374.356 337.233C330.027 337.233 303.251 341.552 301.258 344.602Z" fill="#4C5267"/>
<path d="M605.478 619.306C621.604 618.858 641.674 618.298 657.135 607.004C661.739 603.502 665.522 599.037 668.219 593.92C670.915 588.802 672.461 583.158 672.746 577.381C673.061 568.462 669.839 560.675 663.671 555.463C655.595 548.64 643.803 547.04 631.094 550.774L644.261 454.554L634.596 453.23L619.118 566.349L627.189 562.645C636.546 558.352 649.391 556.168 657.372 562.914C659.333 564.677 660.861 566.87 661.835 569.319C662.81 571.769 663.208 574.41 662.996 577.038C662.76 581.338 661.599 585.536 659.594 589.347C657.59 593.158 654.788 596.493 651.38 599.125C639.348 607.914 623.351 609.048 605.207 609.554L605.478 619.306Z" fill="#4C5267"/>
<path d="M578.755 462.853H526.212V472.608H578.755V462.853Z" fill="#4C5267"/>
<path d="M154.631 424.949C152.293 424.94 150.033 424.101 148.257 422.579C146.482 421.056 145.305 418.952 144.94 416.642L141.733 396.175C141.333 393.6 141.97 390.971 143.504 388.867C145.039 386.762 147.346 385.351 149.919 384.945L320.512 358.216C323.086 357.815 325.714 358.452 327.818 359.986C329.924 361.522 331.334 363.828 331.74 366.403L334.947 386.871C335.347 389.444 334.71 392.073 333.176 394.177C331.642 396.283 329.334 397.693 326.761 398.099L156.168 424.828C155.66 424.908 155.147 424.947 154.631 424.949Z" fill="#204749"/>
<path d="M84.032 185.083C123.569 185.083 155.62 153.031 155.62 113.495C155.62 73.9577 123.569 41.9066 84.032 41.9066C44.495 41.9066 12.444 73.9577 12.444 113.495C12.444 153.031 44.495 185.083 84.032 185.083Z" fill="#9EEA6C"/>
<path d="M124.564 132.018C126.852 131.217 128.942 129.936 130.693 128.261C131.853 127.067 132.736 125.633 133.283 124.061C133.83 122.489 134.026 120.817 133.859 119.161C133.761 117.981 133.392 116.839 132.78 115.825C132.169 114.811 131.331 113.952 130.332 113.316C127.742 111.723 124.318 111.783 120.862 113.385L120.463 85.4408L117.656 85.4808L118.125 118.332L120.262 116.931C122.739 115.308 126.3 114.132 128.861 115.707C129.495 116.125 130.024 116.682 130.407 117.337C130.79 117.992 131.016 118.726 131.069 119.483C131.187 120.716 131.038 121.961 130.632 123.132C130.226 124.302 129.573 125.372 128.716 126.268C125.673 129.287 121.169 130.299 116.028 131.224L116.526 133.987C119.258 133.572 121.949 132.913 124.564 132.018Z" fill="#4C5267"/>
<path d="M149.37 83.4791L134.421 85.7433L134.841 88.5186L149.79 86.2546L149.37 83.4791Z" fill="#4C5267"/>
<path d="M102.182 90.6239L87.233 92.8879L87.6532 95.6633L102.603 93.3993L102.182 90.6239Z" fill="#4C5267"/>
<path d="M131.34 423.697C128.766 423.691 126.254 422.902 124.139 421.434C122.024 419.966 120.406 417.888 119.501 415.478L70.1433 283.295C64.1104 267.083 64.7547 249.14 71.9345 233.403C79.1144 217.667 92.2436 205.42 108.442 199.351L148.576 184.366C150.127 183.782 151.779 183.511 153.435 183.568C155.093 183.626 156.723 184.011 158.23 184.7C159.734 185.372 161.088 186.338 162.215 187.539C163.343 188.741 164.219 190.154 164.793 191.698L256.224 364.329C256.817 365.886 257.098 367.545 257.047 369.21C256.998 370.875 256.619 372.514 255.932 374.033C255.247 375.55 254.268 376.919 253.052 378.057C251.835 379.196 250.406 380.081 248.845 380.665L135.755 422.894C134.344 423.423 132.848 423.695 131.34 423.697Z" fill="#244C4E"/>
<path d="M136.399 188.911L227.118 310.226L165.732 190.185C165.225 188.784 164.447 187.497 163.442 186.397C162.439 185.298 161.227 184.406 159.878 183.775C158.529 183.143 157.068 182.782 155.58 182.716C154.092 182.649 152.606 182.875 151.205 183.383L136.399 188.911Z" fill="#E6E6E6"/>
<path d="M280.041 281.043L118.062 270.609C115.509 270.444 113.013 269.778 110.717 268.65C108.421 267.52 106.37 265.951 104.681 264.029C102.992 262.107 101.698 259.871 100.873 257.45C100.048 255.029 99.7078 252.468 99.8724 249.915C100.037 247.362 100.702 244.866 101.831 242.569C102.96 240.273 104.531 238.222 106.452 236.534C108.374 234.845 110.609 233.551 113.031 232.725C115.453 231.9 118.013 231.56 120.567 231.725L282.545 242.158C283.741 242.234 284.91 242.546 285.985 243.075C287.061 243.604 288.021 244.339 288.812 245.239C289.603 246.139 290.209 247.186 290.595 248.32C290.981 249.455 291.141 250.653 291.064 251.849L289.733 272.524C289.577 274.938 288.469 277.193 286.651 278.79C284.833 280.388 282.455 281.197 280.041 281.043Z" fill="#9EEA6C"/>
<path d="M236.758 287.732C236.543 287.732 236.33 287.725 236.114 287.711L103.106 279.144C101.819 279.061 100.56 278.726 99.402 278.156C98.2441 277.586 97.2096 276.794 96.3577 275.826C95.5058 274.856 94.8531 273.728 94.437 272.507C94.0208 271.286 93.8494 269.995 93.9324 268.707L96.2069 233.392C96.2899 232.105 96.6256 230.846 97.1951 229.688C97.7646 228.53 98.5564 227.497 99.5256 226.645C100.495 225.793 101.622 225.14 102.844 224.723C104.065 224.307 105.357 224.136 106.645 224.219L239.653 232.786C242.252 232.957 244.678 234.15 246.397 236.107C248.117 238.064 248.99 240.622 248.826 243.222L246.552 278.537C246.427 280.43 245.757 282.246 244.626 283.768C243.493 285.289 241.946 286.451 240.171 287.115C239.078 287.524 237.923 287.732 236.758 287.732Z" fill="#244C4E"/>
<path d="M83.2113 65.8897C92.6291 57.79 105.562 65.0357 116.362 63.7673C126.695 62.5537 134.854 53.2851 136.938 43.4386C139.37 31.9508 133.407 20.4417 124.618 13.2793C114.992 5.43473 102.226 3.18273 90.1291 4.63404C76.2639 6.29741 63.5837 12.7605 52.2057 20.5779C41.2231 27.8898 31.1235 36.4479 22.1083 46.0817C14.0356 54.9974 7.19594 65.6247 5.01184 77.6221C3.02703 88.5252 4.54259 100.607 10.988 109.844C14.4059 114.578 18.9861 118.351 24.2868 120.8C29.8137 123.514 35.7093 125.454 41.064 128.523C49.16 133.162 57.0286 142.783 54.4926 152.794C53.949 154.981 52.876 157.001 51.368 158.675C49.5564 160.687 46.2885 158.028 48.105 156.013C51.2953 152.471 51.1697 147.748 49.4694 143.52C47.4476 138.755 43.8677 134.818 39.316 132.354C33.711 129.149 27.5229 127.171 21.7783 124.252C16.2797 121.586 11.5068 117.631 7.86573 112.723C0.990174 103.168 -1.06645 90.7328 0.492874 79.2295C2.1803 66.781 8.57625 55.469 16.5941 45.9895C25.3197 35.6733 36.0378 26.9408 46.9872 19.0959C58.7362 10.6781 71.7165 3.56156 86.08 0.987605C98.531 -1.24361 112.027 0.130067 122.915 6.91527C133.078 13.2488 140.871 24.1438 141.646 36.3178C141.924 41.857 140.722 47.3703 138.162 52.2902C135.602 57.2103 131.777 61.3591 127.081 64.3103C122.263 67.1937 116.661 68.4914 111.065 68.0206C105.083 67.6377 99.0954 65.8059 93.0753 66.3144C90.351 66.4798 87.755 67.5288 85.6805 69.3022C83.6229 71.0719 81.1706 67.6448 83.2113 65.8897Z" fill="#4C5267"/>
</svg>
