<svg width="480" height="597" viewBox="0 0 480 597" fill="none" xmlns="http://www.w3.org/2000/svg">
<path d="M328.625 528.307C323.504 521.135 316.57 515.888 307.854 513.924C300.254 512.211 292.438 512.503 284.712 512.563L187.02 513.316C178.653 513.381 170.631 520.629 171.02 529.316C171.405 537.93 178.051 545.385 187.02 545.316C215.637 545.095 244.254 544.875 272.871 544.654C279.617 544.602 286.368 544.48 293.115 544.503C294.63 544.507 296.139 544.587 297.653 544.605C298.019 544.609 298.284 544.605 298.471 544.598C298.518 544.612 298.557 544.625 298.618 544.642C299.408 544.858 300.218 545.008 301.012 545.214C300.734 545.222 301.527 545.717 301.926 545.885C301.981 545.993 302.097 546.184 302.292 546.48C302.564 546.99 303.369 548.539 303.402 548.49C304.612 551.549 305.61 554.687 306.389 557.883C308.249 564.93 308.657 566.403 308.925 573.015C309.263 581.367 316.042 589.412 324.925 589.015C333.304 588.639 341.288 581.972 340.925 573.015C340.314 557.92 337.664 540.965 328.625 528.307Z" fill="#E6E6E6"/>
<path d="M192.762 564.413C190.927 553.293 189.128 542.166 187.257 531.053C185.359 519.779 181.483 509.455 172.709 502.055C170.365 500.079 167.934 498.233 165.493 496.393C164.635 495.746 163.778 495.098 162.93 494.437C162.879 494.398 162.847 494.373 162.803 494.339C162.71 494.258 162.598 494.163 162.447 494.036C158.791 490.941 155.257 487.709 151.892 484.273C148.903 481.221 146.045 478.039 143.317 474.728C142.635 473.9 141.963 473.066 141.298 472.224C141.184 472.079 140.569 471.284 140.164 470.765C139.787 470.246 139.098 469.308 138.982 469.144C138.206 468.047 137.444 466.94 136.696 465.822C131.6 458.187 127.187 450.118 123.509 441.707C123.144 440.873 122.788 440.034 122.441 439.19C122.347 438.932 122.227 438.602 122.067 438.161C121.325 436.123 120.586 434.087 119.908 432.024C118.468 427.644 117.23 423.198 116.194 418.688C115.682 416.461 115.221 414.223 114.811 411.973C114.599 410.817 114.402 409.657 114.217 408.496C114.187 408.303 114.007 407.049 113.902 406.341C113.823 405.63 113.678 404.37 113.658 404.175C113.541 403.004 113.437 401.832 113.346 400.659C113.142 398.019 113.003 395.374 112.931 392.725C112.808 388.018 112.893 383.31 113.184 378.604C113.35 375.959 113.587 373.321 113.878 370.688C113.895 370.526 113.909 370.398 113.922 370.282C113.939 370.164 113.96 370.031 113.984 369.864C114.199 368.409 114.426 366.956 114.679 365.508C115.639 360.008 116.887 354.563 118.419 349.195C119.144 346.656 119.931 344.137 120.781 341.639C121.16 340.53 121.551 339.426 121.954 338.325C121.928 338.396 123.136 335.31 123.153 335.206C127.948 323.877 135.79 313.549 135.801 300.68C135.808 291.966 128.437 283.62 119.801 284.022C115.495 284.184 111.421 286.012 108.436 289.119C105.451 292.226 103.79 296.371 103.801 300.68C103.801 300.875 103.8 301.042 103.8 301.204C103.719 301.475 103.652 301.702 103.591 301.902C102.656 303.934 101.51 305.865 100.484 307.846C97.6736 313.27 95.2746 318.871 92.9958 324.555C89.2652 333.81 86.4097 343.395 84.4665 353.183C80.243 374.629 79.9152 396.661 83.4988 418.223C89.7024 456.036 110.16 492.232 138.602 516.562C141.07 518.674 143.598 520.714 146.151 522.713C147.207 523.541 148.272 524.352 149.342 525.159C149.848 525.541 151.944 527.193 151.022 526.392C153.004 528.084 153.839 528.936 154.348 530.182C154.422 530.469 154.522 530.86 154.658 531.393C155.017 532.798 155.358 534.2 155.641 535.625C158.117 548.077 159.838 560.737 161.905 573.269C163.327 581.88 173.927 587.484 181.588 584.903C190.504 581.899 194.285 573.639 192.762 564.413Z" fill="#E6E6E6"/>
<path d="M330.244 596.708C323.524 596.725 317.072 594.077 312.303 589.343C307.533 584.609 304.837 578.177 304.804 571.458V553.206C285.695 555.345 220.26 554.85 201.504 551.836V570.728C201.453 577.442 198.751 583.864 193.986 588.594C189.22 593.324 182.778 595.978 176.064 595.978C169.349 595.978 162.907 593.324 158.142 588.594C153.376 583.864 150.674 577.442 150.623 570.728V533.636C125.219 519.523 104.041 498.887 89.2749 473.856C74.5086 448.826 66.6892 420.309 66.6235 391.248C66.6235 341.418 89.2065 294.933 128.582 263.714C154.184 243.347 185.29 231.098 217.905 228.541C222.332 228.194 226.786 228.018 231.143 228.018C246.496 228.018 315.762 230.389 333.141 235.389L372.769 196.068C373.352 195.482 374.096 195.083 374.906 194.921C375.716 194.76 376.556 194.843 377.319 195.161C378.088 195.467 378.746 195.998 379.207 196.684C379.668 197.371 379.911 198.181 379.904 199.008V205.26L387.62 197.617C388.201 197.031 388.945 196.631 389.755 196.469C390.564 196.308 391.404 196.391 392.166 196.709C392.935 197.015 393.594 197.546 394.056 198.233C394.518 198.919 394.761 199.73 394.754 200.557V270.422C414.638 288.349 429.794 310.903 438.877 336.088C447.961 361.272 450.691 388.308 446.827 414.8C442.963 441.292 432.624 466.422 416.725 487.962C400.827 509.503 379.86 526.789 355.683 538.288V571.458C355.651 578.177 352.954 584.609 348.184 589.343C343.415 594.077 336.963 596.725 330.244 596.708ZM306.804 550.938V571.458C306.854 577.641 309.346 583.554 313.736 587.909C318.127 592.264 324.06 594.707 330.243 594.707C336.427 594.707 342.361 592.264 346.751 587.909C351.141 583.554 353.633 577.641 353.683 571.458V537.025L354.254 536.754C381.382 523.881 404.411 503.742 420.785 478.572C441.65 446.454 450.327 407.927 445.246 369.965C440.166 332.003 421.663 297.114 393.086 271.612L392.754 271.314V200.557C392.761 200.127 392.636 199.706 392.396 199.349C392.156 198.992 391.813 198.717 391.412 198.562C391.014 198.391 390.573 198.345 390.148 198.43C389.723 198.514 389.334 198.725 389.031 199.035L377.904 210.055V199.008C377.911 198.578 377.786 198.156 377.546 197.799C377.306 197.442 376.963 197.168 376.562 197.012C376.162 196.842 375.721 196.796 375.295 196.881C374.87 196.966 374.48 197.178 374.177 197.488L333.7 237.652L333.125 237.472C316.969 232.415 246.612 230.018 231.143 230.018C226.837 230.018 222.436 230.192 218.062 230.535C185.843 233.061 155.115 245.161 129.825 265.281C90.9304 296.119 68.6233 342.032 68.6233 391.248C68.6898 420.052 76.4675 448.313 91.1483 473.094C105.829 497.876 126.878 518.275 152.108 532.173L152.623 532.458V570.728C152.675 576.911 155.167 582.823 159.558 587.177C163.948 591.53 169.881 593.973 176.064 593.973C182.247 593.973 188.179 591.53 192.57 587.177C196.96 582.823 199.452 576.911 199.504 570.728V549.442L200.689 549.665C217.544 552.836 288.52 553.336 305.673 551.086L306.804 550.938Z" fill="#4C5267"/>
<path d="M194.674 119.118L83.9335 152.398C80.4112 153.46 77.4549 155.878 75.7139 159.119C73.973 162.36 73.5898 166.16 74.6486 169.683C75.7074 173.207 78.1215 176.166 81.3607 177.91C84.5998 179.655 88.3991 180.042 91.9237 178.988L188.833 149.858L190.864 149.248C191.274 138.786 194.113 128.564 199.154 119.388C198.521 119.103 197.845 118.927 197.154 118.868C196.319 118.787 195.476 118.872 194.674 119.118Z" fill="#9EEA6C"/>
<path d="M90.0086 186.083C88.5386 186.079 87.1068 185.614 85.9157 184.752C84.7246 183.891 83.8344 182.677 83.3708 181.282L76.446 160.386C76.1567 159.513 76.0422 158.592 76.109 157.675C76.1758 156.758 76.4225 155.863 76.8351 155.042C77.2477 154.22 77.8181 153.488 78.5137 152.887C79.2093 152.286 80.0165 151.828 80.8892 151.539L171.02 121.669C171.893 121.38 172.814 121.265 173.731 121.332C174.648 121.398 175.542 121.645 176.364 122.057C177.185 122.47 177.917 123.04 178.519 123.736C179.12 124.431 179.578 125.238 179.867 126.111L186.792 147.007C187.368 148.725 187.253 150.601 186.47 152.236C185.687 153.871 184.299 155.137 182.599 155.766C182.516 155.797 182.431 155.827 182.347 155.854L92.2174 185.723C91.5052 185.961 90.7594 186.082 90.0086 186.083Z" fill="#244C4E"/>
<path d="M258.804 82.0076C240.612 82.0146 223.138 89.0998 210.079 101.763C197.019 114.427 189.4 131.675 188.833 149.858C188.813 150.568 188.804 151.288 188.804 152.008C188.804 165.852 192.909 179.386 200.601 190.897C208.292 202.409 219.225 211.381 232.016 216.679C244.807 221.977 258.881 223.364 272.46 220.663C286.039 217.962 298.511 211.295 308.301 201.505C318.091 191.715 324.758 179.243 327.459 165.664C330.159 152.085 328.773 138.011 323.475 125.22C318.177 112.429 309.205 101.496 297.693 93.8047C286.182 86.113 272.648 82.0076 258.804 82.0076ZM258.804 220.008C240.775 219.989 223.489 212.818 210.741 200.07C197.993 187.322 190.822 170.037 190.804 152.008C190.804 151.078 190.824 150.158 190.864 149.248C191.405 135.927 195.85 123.06 203.646 112.246C211.442 101.432 222.244 93.1477 234.71 88.4238C247.177 83.6999 260.756 82.7445 273.761 85.6766C286.766 88.6087 298.622 95.2988 307.855 104.915C317.088 114.531 323.291 126.649 325.692 139.763C328.093 152.876 326.586 166.406 321.359 178.669C316.133 190.933 307.416 201.39 296.294 208.74C285.172 216.09 272.135 220.008 258.804 220.008Z" fill="#4C5267"/>
<path d="M276.373 155.928C274.943 154.047 273.062 152.558 270.904 151.598C268.242 150.476 265.492 149.573 262.683 148.898V132.838C267.001 133.489 271.051 135.335 274.373 138.168L277.634 131.218C275.759 129.547 273.606 128.217 271.273 127.288C268.688 126.241 265.974 125.544 263.204 125.218V117.078H255.654V125.298C252.738 125.625 249.926 126.569 247.404 128.068C245.125 129.416 243.207 131.296 241.813 133.548C240.483 135.745 239.794 138.27 239.824 140.838C239.694 143.621 240.5 146.367 242.114 148.638C243.599 150.604 245.56 152.159 247.813 153.158C250.518 154.313 253.314 155.239 256.174 155.928V171.318C251.079 170.933 246.224 168.996 242.264 165.768L239.004 172.728C241.218 174.558 243.736 175.987 246.444 176.948C249.41 178.009 252.51 178.655 255.654 178.868V186.938H263.204V178.718C267.397 178.259 271.33 176.456 274.414 173.578C275.772 172.275 276.844 170.705 277.564 168.966C278.283 167.228 278.634 165.359 278.594 163.478C278.719 160.783 277.937 158.125 276.373 155.928ZM256.174 147.198C254.335 146.64 252.625 145.722 251.143 144.498C250.557 143.975 250.093 143.33 249.785 142.607C249.477 141.884 249.333 141.103 249.364 140.318C249.309 138.537 249.964 136.807 251.183 135.508C252.536 134.145 254.281 133.239 256.174 132.918V147.198ZM267.424 168.478C266.148 169.786 264.487 170.652 262.683 170.948V157.708C264.407 158.17 266.02 158.976 267.424 160.078C267.956 160.532 268.379 161.101 268.661 161.742C268.943 162.382 269.077 163.078 269.054 163.778C269.123 165.494 268.541 167.173 267.424 168.478Z" fill="#9EEA6C"/>
<path d="M93.2226 270.772C91.6767 270.769 90.1749 270.257 88.9499 269.314C87.725 268.371 86.8454 267.05 86.4476 265.556L82.6774 251.286C82.2055 249.492 82.4643 247.585 83.3969 245.982C84.3296 244.379 85.86 243.211 87.6525 242.735L206.593 211.305C208.388 210.837 210.295 211.098 211.898 212.033C213.5 212.967 214.668 214.498 215.144 216.29L218.338 228.38L217.74 228.427C187.235 230.799 158.048 241.858 133.632 260.298L133.459 260.382L94.9985 270.541C94.4189 270.694 93.822 270.772 93.2226 270.772Z" fill="#204749"/>
<path d="M73.5237 341.258C59.5713 339.197 46.2274 334.151 34.4015 326.466C28.5427 322.661 23.119 318.225 18.2276 313.238C13.3997 308.313 8.78109 302.716 6.38978 296.158C4.08903 290.091 4.20761 283.371 6.72102 277.389C9.20015 271.443 13.9358 266.723 19.8898 264.263C25.8794 261.875 33.116 261.619 38.9452 264.235C41.723 265.453 44.1266 267.388 45.9095 269.841C46.7383 270.972 47.3519 272.246 47.7198 273.599C48.0612 274.825 48.0923 276.117 47.8102 277.358C47.4684 278.598 46.8656 279.749 46.0422 280.736C45.2189 281.723 44.194 282.523 43.0363 283.081C40.4885 284.389 37.7278 285.23 34.8842 285.568C32.0241 285.958 27.9155 286.313 25.6162 284.017C25.1429 283.562 24.7706 283.014 24.5236 282.406C24.3508 281.941 24.2916 281.441 24.3512 280.948C24.3177 281.165 24.4899 280.475 24.4801 280.503C24.4438 280.605 24.2863 280.853 24.5101 280.472C24.58 280.346 24.6579 280.225 24.7432 280.109C24.6672 280.207 24.5003 280.371 24.7984 280.089C25.0447 279.82 25.3613 279.624 25.7127 279.525C25.8511 279.485 25.9915 279.453 26.1303 279.415C26.4831 279.318 25.7787 279.42 26.1396 279.408C26.2788 279.404 26.4198 279.407 26.5586 279.401C26.9126 279.385 26.2093 279.305 26.5486 279.39C26.6803 279.423 26.8108 279.455 26.9406 279.496C27.2227 279.585 26.7408 279.289 26.932 279.511C27.156 279.77 26.6968 279.258 26.9514 279.51C27.0781 279.634 27.1975 279.766 27.3091 279.904C27.7506 280.34 28.3461 280.584 28.9666 280.584C29.587 280.584 30.1825 280.34 30.6241 279.904C31.0506 279.457 31.2886 278.864 31.2886 278.246C31.2886 277.629 31.0506 277.035 30.6241 276.589C28.3127 273.723 23.747 274.431 21.4088 276.853C18.4268 279.942 19.6077 284.836 22.5083 287.531C25.792 290.582 30.4427 290.794 34.6667 290.282C38.2364 289.94 41.7151 288.957 44.9358 287.38C48.136 285.808 50.6388 283.104 51.9598 279.792C52.5562 278.025 52.7704 276.151 52.5883 274.294C52.4062 272.438 51.8319 270.641 50.9034 269.023C47.1741 262.012 39.4519 258.418 31.8191 257.795C27.8893 257.487 23.9375 257.962 20.1923 259.191C16.4471 260.421 12.983 262.381 10.0003 264.958C4.25128 270.133 0.711161 277.32 0.112038 285.033C-0.554222 293.029 2.54813 300.794 7.07127 307.247C11.8065 313.804 17.4571 319.647 23.8507 324.6C36.3501 334.579 51.0119 341.494 66.6627 344.791C68.5243 345.176 70.3959 345.505 72.2774 345.779C72.8761 345.924 73.5076 345.835 74.0433 345.531C74.579 345.227 74.9787 344.73 75.1609 344.141C75.3216 343.542 75.2399 342.904 74.9335 342.364C74.6272 341.824 74.1207 341.427 73.5237 341.258Z" fill="#4C5267"/>
<path d="M296.909 239.382C276.467 239.093 256.089 239.612 235.776 240.938C228.833 241.392 222.825 243.846 222.825 247.97C222.825 251.419 228.785 255.459 235.776 255.002C256.079 253.676 276.457 253.158 296.909 253.446C313.583 253.681 313.573 239.617 296.909 239.382Z" fill="#7C7C8A" fill-opacity="0.2"/>
<path d="M266.695 252.749C264.486 252.749 212.59 252.667 212.59 245.498C212.59 238.33 264.486 238.248 266.695 238.248C268.904 238.248 320.801 238.33 320.801 245.498C320.801 252.667 268.904 252.749 266.695 252.749ZM214.619 245.498C216.039 247.672 235.115 250.749 266.695 250.749C298.275 250.749 317.351 247.672 318.772 245.498C317.352 243.325 298.275 240.248 266.695 240.248C235.115 240.248 216.039 243.325 214.619 245.498Z" fill="#4C5267"/>
<path d="M431.349 441.2C442.837 440.881 457.135 440.482 468.15 432.436C471.43 429.941 474.125 426.76 476.046 423.115C477.967 419.469 479.068 415.448 479.271 411.332C479.496 404.978 477.2 399.431 472.806 395.718C467.053 390.857 458.652 389.717 449.598 392.377L458.978 323.829L452.093 322.886L441.066 403.473L446.816 400.834C453.482 397.776 462.633 396.22 468.319 401.026C469.716 402.282 470.804 403.844 471.498 405.589C472.193 407.334 472.476 409.216 472.325 411.088C472.157 414.151 471.33 417.142 469.902 419.857C468.474 422.572 466.478 424.948 464.05 426.823C455.478 433.084 444.082 433.892 431.156 434.253L431.349 441.2Z" fill="#4C5267"/>
<path d="M412.311 329.741H374.879V336.691H412.311V329.741Z" fill="#4C5267"/>
<path d="M110.161 302.738C108.495 302.732 106.885 302.134 105.62 301.05C104.355 299.965 103.517 298.466 103.257 296.82L100.972 282.239C100.687 280.405 101.141 278.532 102.234 277.033C103.327 275.533 104.971 274.528 106.804 274.239L228.336 255.197C230.17 254.911 232.042 255.365 233.541 256.458C235.041 257.552 236.046 259.195 236.335 261.029L238.62 275.611C238.905 277.444 238.451 279.317 237.358 280.816C236.265 282.316 234.621 283.321 232.788 283.61L111.256 302.652C110.894 302.709 110.528 302.737 110.161 302.738Z" fill="#204749"/>
<path d="M59.8653 131.855C88.0318 131.855 110.865 109.021 110.865 80.8547C110.865 52.6882 88.0318 29.8547 59.8653 29.8547C31.6987 29.8547 8.86526 52.6882 8.86526 80.8547C8.86526 109.021 31.6987 131.855 59.8653 131.855Z" fill="#9EEA6C"/>
<path d="M88.7406 94.0507C90.3705 93.4806 91.8595 92.5681 93.1074 91.3746C93.9331 90.5236 94.5627 89.5025 94.9522 88.3826C95.3417 87.2627 95.4816 86.0712 95.3622 84.8916C95.2928 84.0508 95.03 83.2375 94.5942 82.5151C94.1584 81.7927 93.5615 81.1809 92.8501 80.7275C91.0044 79.5924 88.5655 79.6353 86.1032 80.7768L85.819 60.8689L83.8193 60.8974L84.1533 84.3012L85.6756 83.3027C87.4409 82.1468 89.9774 81.3087 91.8022 82.4312C92.2536 82.7283 92.6303 83.1256 92.9031 83.592C93.1759 84.0585 93.3374 84.5816 93.3751 85.1207C93.4593 85.9995 93.3531 86.8861 93.0639 87.7202C92.7746 88.5543 92.3091 89.3163 91.6989 89.9543C89.531 92.1055 86.3221 92.8262 82.6597 93.4855L83.0141 95.4536C84.961 95.158 86.8775 94.6885 88.7406 94.0507Z" fill="#4C5267"/>
<path d="M106.413 59.4714L95.7626 61.0844L96.062 63.0616L106.712 61.4487L106.413 59.4714Z" fill="#4C5267"/>
<path d="M72.7959 64.5614L62.1457 66.1743L62.4451 68.1515L73.0954 66.5386L72.7959 64.5614Z" fill="#4C5267"/>
<path d="M93.5683 301.846C91.7342 301.842 89.9447 301.28 88.438 300.234C86.9313 299.188 85.7788 297.708 85.1339 295.991L49.9708 201.822C45.6729 190.273 46.1319 177.49 51.2469 166.279C56.3619 155.068 65.7153 146.343 77.255 142.02L105.847 131.344C106.952 130.928 108.129 130.735 109.309 130.776C110.49 130.817 111.651 131.091 112.725 131.582C113.796 132.061 114.761 132.749 115.564 133.605C116.367 134.461 116.991 135.468 117.4 136.568L182.537 259.552C182.959 260.661 183.159 261.843 183.123 263.029C183.088 264.215 182.818 265.383 182.329 266.465C181.841 267.546 181.143 268.521 180.277 269.332C179.41 270.143 178.392 270.774 177.28 271.19L96.7136 301.274C95.7078 301.651 94.6425 301.845 93.5683 301.846Z" fill="#244C4E"/>
<path d="M97.172 134.582L161.801 221.008L118.069 135.49C117.708 134.492 117.154 133.575 116.438 132.791C115.723 132.008 114.86 131.373 113.899 130.923C112.938 130.473 111.897 130.216 110.837 130.169C109.777 130.121 108.718 130.282 107.72 130.644L97.172 134.582Z" fill="#E6E6E6"/>
<path d="M199.504 200.218L84.1087 192.785C82.2898 192.667 80.5118 192.193 78.8761 191.389C77.2405 190.584 75.7794 189.466 74.576 188.097C73.3727 186.728 72.4508 185.135 71.863 183.41C71.2752 181.685 71.0329 179.861 71.1501 178.042C71.2672 176.223 71.7415 174.445 72.5458 172.809C73.3501 171.173 74.4687 169.712 75.8377 168.509C77.2067 167.306 78.7993 166.384 80.5246 165.796C82.2499 165.208 84.074 164.966 85.8929 165.083L201.288 172.516C202.14 172.57 202.973 172.792 203.739 173.169C204.505 173.546 205.189 174.07 205.753 174.711C206.316 175.352 206.748 176.098 207.023 176.906C207.298 177.714 207.412 178.568 207.357 179.42L206.409 194.149C206.298 195.869 205.508 197.475 204.213 198.613C202.918 199.751 201.224 200.328 199.504 200.218Z" fill="#9EEA6C"/>
<path d="M168.669 204.983C168.516 204.983 168.364 204.978 168.21 204.968L73.4541 198.865C72.5367 198.806 71.6399 198.567 70.815 198.161C69.9901 197.755 69.2531 197.191 68.6462 196.501C68.0393 195.81 67.5743 195.007 67.2779 194.137C66.9814 193.267 66.8593 192.347 66.9184 191.43L68.5388 166.271C68.5979 165.354 68.8371 164.457 69.2428 163.632C69.6485 162.807 70.2126 162.071 70.9031 161.464C71.5936 160.857 72.3969 160.392 73.2671 160.095C74.1373 159.799 75.0573 159.677 75.9747 159.736L170.731 165.839C172.583 165.961 174.311 166.811 175.536 168.205C176.761 169.599 177.383 171.422 177.266 173.274L175.646 198.433C175.557 199.781 175.08 201.075 174.274 202.159C173.467 203.243 172.365 204.071 171.1 204.544C170.322 204.835 169.499 204.983 168.669 204.983Z" fill="#244C4E"/>
<path d="M59.2806 46.9405C65.9899 41.1702 75.2032 46.3321 82.8974 45.4285C90.2585 44.5639 96.0711 37.9609 97.5559 30.9461C99.2883 22.7621 95.0404 14.5629 88.7793 9.46034C81.9218 3.87176 72.8272 2.26741 64.2089 3.30134C54.3312 4.48634 45.2977 9.09069 37.1919 14.6599C29.3678 19.869 22.1727 25.9659 15.7502 32.8291C9.99913 39.1807 5.12646 46.7517 3.57049 55.2988C2.15649 63.0663 3.23619 71.6738 7.828 78.254C10.2629 81.6266 13.5259 84.3148 17.3022 86.0592C21.2396 87.9927 25.4397 89.3749 29.2544 91.5609C35.0221 94.8662 40.6278 101.72 38.8211 108.852C38.4338 110.41 37.6694 111.849 36.5951 113.042C35.3045 114.475 32.9764 112.581 34.2705 111.145C36.5433 108.622 36.4538 105.257 35.2425 102.245C33.8022 98.8502 31.2518 96.0456 28.0091 94.2903C24.0161 92.0073 19.6076 90.5982 15.5151 88.5187C11.5978 86.6191 8.19755 83.8013 5.60363 80.3049C0.705411 73.4979 -0.759751 64.639 0.351129 56.4439C1.55327 47.5755 6.10981 39.5167 11.8218 32.7634C18.038 25.414 25.6737 19.1929 33.4742 13.6041C41.8443 7.60721 51.0916 2.53729 61.3243 0.70358C70.1945 -0.88596 79.8091 0.0926609 87.5656 4.92651C94.8059 9.4386 100.358 17.2003 100.91 25.8732C101.108 29.8194 100.252 33.7471 98.4278 37.2521C96.604 40.7572 93.8793 43.7129 90.5339 45.8153C87.1012 47.8695 83.1102 48.794 79.1239 48.4586C74.8623 48.1858 70.5966 46.8808 66.3078 47.2431C64.367 47.3609 62.5176 48.1082 61.0397 49.3716C59.5738 50.6324 57.8268 48.1909 59.2806 46.9405Z" fill="#4C5267"/>
</svg>
